<?xml version="1.0" standalone="no"?>
<!DOCTYPE svg PUBLIC "-//W3C//DTD SVG 20010904//EN"
 "http://www.w3.org/TR/2001/REC-SVG-20010904/DTD/svg10.dtd">
<svg version="1.0" xmlns="http://www.w3.org/2000/svg"
 width="260.000000pt" height="260.000000pt" viewBox="0 0 260.000000 260.000000"
 preserveAspectRatio="xMidYMid meet">
<metadata>
Created by potrace 1.11, written by Peter Selinger 2001-2013
</metadata>
<g transform="translate(0.000000,260.000000) scale(0.100000,-0.100000)"
fill="#000000" stroke="none">
<path d="M251 2571 c19 -54 96 -84 147 -57 24 12 36 28 60 79 2 4 -46 7 -107
7 l-110 0 10 -29z"/>
<path d="M1 2175 l0 -100 23 28 c29 36 28 92 -2 139 l-22 33 1 -100z"/>
<path d="M302 2254 c-76 -33 -75 -151 0 -190 43 -22 107 -7 133 32 22 34 27
67 15 99 -25 65 -82 88 -148 59z"/>
<path d="M667 2212 c-29 -32 -25 -73 8 -89 34 -16 62 -6 72 26 13 36 6 59 -20
67 -38 13 -45 12 -60 -4z"/>
<path d="M1165 2173 c-242 -30 -420 -171 -463 -368 -49 -221 22 -411 204 -546
30 -22 139 -83 244 -135 207 -105 272 -153 294 -218 32 -93 -9 -183 -99 -219
-52 -20 -191 -28 -267 -14 -103 19 -245 61 -299 88 -9 4 -38 17 -65 28 l-50
19 2 -172 c1 -94 2 -174 3 -178 1 -9 124 -54 196 -72 155 -39 372 -45 518 -15
113 23 237 83 301 146 97 95 136 187 141 331 5 153 -34 262 -129 356 -74 73
-151 121 -361 226 -226 113 -275 157 -279 250 -2 29 16 85 36 113 66 92 268
94 508 4 52 -20 96 -35 97 -33 6 5 123 289 121 291 -12 10 -214 79 -280 96
-79 19 -293 32 -373 22z"/>
<path d="M300 1815 c-31 -17 -57 -62 -54 -93 1 -15 2 -32 3 -38 4 -43 105 -90
137 -63 8 6 14 8 14 4 0 -11 50 47 51 60 6 46 5 63 -4 80 -10 19 -44 54 -56
56 -28 6 -74 3 -91 -6z"/>
<path d="M0 1710 c0 -84 2 -98 15 -94 8 4 13 10 10 14 -3 4 2 11 11 14 8 3 13
10 9 15 -3 5 -1 13 5 16 13 8 3 88 -11 93 -5 2 -9 10 -9 17 0 7 -7 15 -15 19
-13 4 -15 -10 -15 -94z"/>
<path d="M2558 908 c-32 -34 -36 -43 -33 -83 2 -37 10 -52 36 -78 l34 -32 3
63 c2 34 2 87 0 116 l-3 53 -37 -39z"/>
<path d="M2236 928 c-44 -25 -60 -51 -60 -100 0 -40 5 -51 30 -73 16 -14 31
-25 34 -26 3 0 16 -2 28 -5 64 -12 131 62 116 129 -13 62 -96 104 -148 75z"/>
<path d="M2243 440 c-30 -12 -63 -42 -57 -52 3 -4 2 -8 -3 -8 -13 0 -13 -53 0
-80 23 -48 55 -68 103 -66 34 1 97 43 88 57 -3 5 -1 9 3 9 10 0 13 34 7 67 -4
21 -47 72 -62 74 -4 0 -18 2 -32 4 -14 2 -35 0 -47 -5z"/>
<path d="M2562 434 c-62 -43 -63 -136 -3 -186 12 -10 21 -14 21 -10 0 4 5 0
10 -8 7 -10 10 23 10 103 0 64 -3 117 -8 117 -4 0 -18 -7 -30 -16z"/>
<path d="M1919 393 c-45 -10 -39 -87 8 -104 30 -11 73 23 68 53 -8 41 -35 59
-76 51z"/>
<path d="M2234 37 c-56 -31 -48 -37 47 -37 l92 0 -23 20 c-13 11 -26 21 -29
21 -32 6 -72 4 -87 -4z"/>
</g>
</svg>
